<mxfile host="Electron" agent="Mozilla/5.0 (Windows NT 10.0; Win64; x64) AppleWebKit/537.36 (KHTML, like Gecko) draw.io/26.1.1 Chrome/132.0.6834.210 Electron/34.3.3 Safari/537.36" version="26.1.1">
  <diagram name="第 1 页" id="2o5JNIoyaKr2TpDQKm_U">
    <mxGraphModel dx="1461" dy="823" grid="1" gridSize="10" guides="1" tooltips="1" connect="1" arrows="1" fold="1" page="1" pageScale="1" pageWidth="827" pageHeight="1169" math="0" shadow="0">
      <root>
        <mxCell id="0" />
        <mxCell id="1" parent="0" />
        <mxCell id="L-QoijsGHXmfGYL6V6J6-9" value="标题" style="ellipse;whiteSpace=wrap;html=1;align=center;" vertex="1" parent="1">
          <mxGeometry x="240" y="40" width="80" height="40" as="geometry" />
        </mxCell>
        <mxCell id="L-QoijsGHXmfGYL6V6J6-10" value="消息" style="whiteSpace=wrap;html=1;align=center;" vertex="1" parent="1">
          <mxGeometry x="360" y="160" width="160" height="80" as="geometry" />
        </mxCell>
        <mxCell id="L-QoijsGHXmfGYL6V6J6-11" value="创建时间" style="ellipse;whiteSpace=wrap;html=1;align=center;" vertex="1" parent="1">
          <mxGeometry x="200" y="280" width="80" height="40" as="geometry" />
        </mxCell>
        <mxCell id="L-QoijsGHXmfGYL6V6J6-12" value="ID" style="ellipse;whiteSpace=wrap;html=1;align=center;" vertex="1" parent="1">
          <mxGeometry x="400" y="40" width="80" height="40" as="geometry" />
        </mxCell>
        <mxCell id="L-QoijsGHXmfGYL6V6J6-13" value="故障类型" style="ellipse;whiteSpace=wrap;html=1;align=center;" vertex="1" parent="1">
          <mxGeometry x="605" y="280" width="85" height="40" as="geometry" />
        </mxCell>
        <mxCell id="L-QoijsGHXmfGYL6V6J6-14" value="发送者用户姓名" style="ellipse;whiteSpace=wrap;html=1;align=center;" vertex="1" parent="1">
          <mxGeometry x="160" y="180" width="100" height="40" as="geometry" />
        </mxCell>
        <mxCell id="L-QoijsGHXmfGYL6V6J6-15" value="创建时间" style="ellipse;whiteSpace=wrap;html=1;align=center;" vertex="1" parent="1">
          <mxGeometry x="160" y="600" width="80" height="40" as="geometry" />
        </mxCell>
        <mxCell id="L-QoijsGHXmfGYL6V6J6-16" value="角色" style="ellipse;whiteSpace=wrap;html=1;align=center;" vertex="1" parent="1">
          <mxGeometry x="360" y="520" width="80" height="40" as="geometry" />
        </mxCell>
        <mxCell id="L-QoijsGHXmfGYL6V6J6-17" value="内容" style="ellipse;whiteSpace=wrap;html=1;align=center;" vertex="1" parent="1">
          <mxGeometry x="560" y="40" width="80" height="40" as="geometry" />
        </mxCell>
        <mxCell id="L-QoijsGHXmfGYL6V6J6-18" value="维修人员姓名" style="ellipse;whiteSpace=wrap;html=1;align=center;" vertex="1" parent="1">
          <mxGeometry x="480" y="320" width="100" height="40" as="geometry" />
        </mxCell>
        <mxCell id="L-QoijsGHXmfGYL6V6J6-19" value="昵称" style="ellipse;whiteSpace=wrap;html=1;align=center;" vertex="1" parent="1">
          <mxGeometry x="440" y="800" width="80" height="40" as="geometry" />
        </mxCell>
        <mxCell id="L-QoijsGHXmfGYL6V6J6-20" value="发送者用户ID" style="ellipse;whiteSpace=wrap;html=1;align=center;" vertex="1" parent="1">
          <mxGeometry x="314" y="320" width="100" height="40" as="geometry" />
        </mxCell>
        <mxCell id="L-QoijsGHXmfGYL6V6J6-21" value="密码" style="ellipse;whiteSpace=wrap;html=1;align=center;" vertex="1" parent="1">
          <mxGeometry x="280" y="800" width="80" height="40" as="geometry" />
        </mxCell>
        <mxCell id="L-QoijsGHXmfGYL6V6J6-22" value="发送者真实姓名" style="ellipse;whiteSpace=wrap;html=1;align=center;" vertex="1" parent="1">
          <mxGeometry x="610" y="180" width="100" height="40" as="geometry" />
        </mxCell>
        <mxCell id="L-QoijsGHXmfGYL6V6J6-39" value="" style="endArrow=none;html=1;rounded=0;exitX=0.5;exitY=0;exitDx=0;exitDy=0;" edge="1" parent="1" source="L-QoijsGHXmfGYL6V6J6-20">
          <mxGeometry width="50" height="50" relative="1" as="geometry">
            <mxPoint x="389" y="290" as="sourcePoint" />
            <mxPoint x="439" y="240" as="targetPoint" />
          </mxGeometry>
        </mxCell>
        <mxCell id="L-QoijsGHXmfGYL6V6J6-40" value="" style="endArrow=none;html=1;rounded=0;exitX=0.5;exitY=0;exitDx=0;exitDy=0;" edge="1" parent="1" source="L-QoijsGHXmfGYL6V6J6-18">
          <mxGeometry width="50" height="50" relative="1" as="geometry">
            <mxPoint x="470" y="320" as="sourcePoint" />
            <mxPoint x="440" y="240" as="targetPoint" />
          </mxGeometry>
        </mxCell>
        <mxCell id="L-QoijsGHXmfGYL6V6J6-41" value="" style="endArrow=none;html=1;rounded=0;exitX=0.5;exitY=0;exitDx=0;exitDy=0;entryX=0.5;entryY=1;entryDx=0;entryDy=0;" edge="1" parent="1" source="L-QoijsGHXmfGYL6V6J6-11" target="L-QoijsGHXmfGYL6V6J6-10">
          <mxGeometry width="50" height="50" relative="1" as="geometry">
            <mxPoint x="310" y="290" as="sourcePoint" />
            <mxPoint x="360" y="240" as="targetPoint" />
          </mxGeometry>
        </mxCell>
        <mxCell id="L-QoijsGHXmfGYL6V6J6-42" value="" style="endArrow=none;html=1;rounded=0;entryX=0.5;entryY=1;entryDx=0;entryDy=0;exitX=0.5;exitY=0;exitDx=0;exitDy=0;" edge="1" parent="1" source="L-QoijsGHXmfGYL6V6J6-13" target="L-QoijsGHXmfGYL6V6J6-10">
          <mxGeometry width="50" height="50" relative="1" as="geometry">
            <mxPoint x="560" y="330" as="sourcePoint" />
            <mxPoint x="610" y="280" as="targetPoint" />
          </mxGeometry>
        </mxCell>
        <mxCell id="L-QoijsGHXmfGYL6V6J6-43" value="" style="endArrow=none;html=1;rounded=0;exitX=1;exitY=0.5;exitDx=0;exitDy=0;" edge="1" parent="1" source="L-QoijsGHXmfGYL6V6J6-10">
          <mxGeometry width="50" height="50" relative="1" as="geometry">
            <mxPoint x="560" y="250" as="sourcePoint" />
            <mxPoint x="610" y="200" as="targetPoint" />
          </mxGeometry>
        </mxCell>
        <mxCell id="L-QoijsGHXmfGYL6V6J6-44" value="" style="endArrow=none;html=1;rounded=0;exitX=1;exitY=0.5;exitDx=0;exitDy=0;" edge="1" parent="1" source="L-QoijsGHXmfGYL6V6J6-14">
          <mxGeometry width="50" height="50" relative="1" as="geometry">
            <mxPoint x="310" y="250" as="sourcePoint" />
            <mxPoint x="360" y="200" as="targetPoint" />
          </mxGeometry>
        </mxCell>
        <mxCell id="L-QoijsGHXmfGYL6V6J6-45" value="" style="endArrow=none;html=1;rounded=0;exitX=0.5;exitY=0;exitDx=0;exitDy=0;" edge="1" parent="1" source="L-QoijsGHXmfGYL6V6J6-10">
          <mxGeometry width="50" height="50" relative="1" as="geometry">
            <mxPoint x="389" y="130" as="sourcePoint" />
            <mxPoint x="439" y="80" as="targetPoint" />
          </mxGeometry>
        </mxCell>
        <mxCell id="L-QoijsGHXmfGYL6V6J6-46" value="" style="endArrow=none;html=1;rounded=0;exitX=0.5;exitY=0;exitDx=0;exitDy=0;" edge="1" parent="1" source="L-QoijsGHXmfGYL6V6J6-10">
          <mxGeometry width="50" height="50" relative="1" as="geometry">
            <mxPoint x="230" y="130" as="sourcePoint" />
            <mxPoint x="280" y="80" as="targetPoint" />
          </mxGeometry>
        </mxCell>
        <mxCell id="L-QoijsGHXmfGYL6V6J6-47" value="" style="endArrow=none;html=1;rounded=0;exitX=0.5;exitY=0;exitDx=0;exitDy=0;" edge="1" parent="1" source="L-QoijsGHXmfGYL6V6J6-10">
          <mxGeometry width="50" height="50" relative="1" as="geometry">
            <mxPoint x="550" y="130" as="sourcePoint" />
            <mxPoint x="600" y="80" as="targetPoint" />
          </mxGeometry>
        </mxCell>
        <mxCell id="L-QoijsGHXmfGYL6V6J6-48" value="用户" style="whiteSpace=wrap;html=1;align=center;" vertex="1" parent="1">
          <mxGeometry x="320" y="640" width="160" height="80" as="geometry" />
        </mxCell>
        <mxCell id="L-QoijsGHXmfGYL6V6J6-49" value="头像" style="ellipse;whiteSpace=wrap;html=1;align=center;" vertex="1" parent="1">
          <mxGeometry x="190" y="740" width="80" height="40" as="geometry" />
        </mxCell>
        <mxCell id="L-QoijsGHXmfGYL6V6J6-50" value="用户名" style="ellipse;whiteSpace=wrap;html=1;align=center;" vertex="1" parent="1">
          <mxGeometry x="560" y="600" width="80" height="40" as="geometry" />
        </mxCell>
        <mxCell id="L-QoijsGHXmfGYL6V6J6-51" value="ID" style="ellipse;whiteSpace=wrap;html=1;align=center;" vertex="1" parent="1">
          <mxGeometry x="480" y="520" width="80" height="40" as="geometry" />
        </mxCell>
        <mxCell id="L-QoijsGHXmfGYL6V6J6-52" value="ID" style="ellipse;whiteSpace=wrap;html=1;align=center;" vertex="1" parent="1">
          <mxGeometry x="200" y="1200" width="80" height="40" as="geometry" />
        </mxCell>
        <mxCell id="L-QoijsGHXmfGYL6V6J6-53" value="是否删除" style="ellipse;whiteSpace=wrap;html=1;align=center;" vertex="1" parent="1">
          <mxGeometry x="234" y="1480" width="80" height="40" as="geometry" />
        </mxCell>
        <mxCell id="L-QoijsGHXmfGYL6V6J6-54" value="角色ID编号" style="ellipse;whiteSpace=wrap;html=1;align=center;" vertex="1" parent="1">
          <mxGeometry x="240" y="520" width="80" height="40" as="geometry" />
        </mxCell>
        <mxCell id="L-QoijsGHXmfGYL6V6J6-57" value="电话" style="ellipse;whiteSpace=wrap;html=1;align=center;" vertex="1" parent="1">
          <mxGeometry x="525" y="740" width="80" height="40" as="geometry" />
        </mxCell>
        <mxCell id="L-QoijsGHXmfGYL6V6J6-58" value="邮箱" style="ellipse;whiteSpace=wrap;html=1;align=center;" vertex="1" parent="1">
          <mxGeometry x="600" y="660" width="80" height="40" as="geometry" />
        </mxCell>
        <mxCell id="L-QoijsGHXmfGYL6V6J6-59" value="地址" style="ellipse;whiteSpace=wrap;html=1;align=center;" vertex="1" parent="1">
          <mxGeometry x="120" y="660" width="80" height="40" as="geometry" />
        </mxCell>
        <mxCell id="L-QoijsGHXmfGYL6V6J6-61" value="" style="endArrow=none;html=1;rounded=0;exitX=0.5;exitY=0;exitDx=0;exitDy=0;" edge="1" parent="1" source="L-QoijsGHXmfGYL6V6J6-48">
          <mxGeometry width="50" height="50" relative="1" as="geometry">
            <mxPoint x="400" y="630" as="sourcePoint" />
            <mxPoint x="400" y="560" as="targetPoint" />
          </mxGeometry>
        </mxCell>
        <mxCell id="L-QoijsGHXmfGYL6V6J6-62" value="" style="endArrow=none;html=1;rounded=0;exitX=0.5;exitY=0;exitDx=0;exitDy=0;" edge="1" parent="1" source="L-QoijsGHXmfGYL6V6J6-48">
          <mxGeometry width="50" height="50" relative="1" as="geometry">
            <mxPoint x="470" y="610" as="sourcePoint" />
            <mxPoint x="520" y="560" as="targetPoint" />
          </mxGeometry>
        </mxCell>
        <mxCell id="L-QoijsGHXmfGYL6V6J6-63" value="" style="endArrow=none;html=1;rounded=0;exitX=0.5;exitY=0;exitDx=0;exitDy=0;" edge="1" parent="1" source="L-QoijsGHXmfGYL6V6J6-48">
          <mxGeometry width="50" height="50" relative="1" as="geometry">
            <mxPoint x="230" y="610" as="sourcePoint" />
            <mxPoint x="280" y="560" as="targetPoint" />
          </mxGeometry>
        </mxCell>
        <mxCell id="L-QoijsGHXmfGYL6V6J6-64" value="" style="endArrow=none;html=1;rounded=0;exitX=0.5;exitY=0;exitDx=0;exitDy=0;" edge="1" parent="1" source="L-QoijsGHXmfGYL6V6J6-48">
          <mxGeometry width="50" height="50" relative="1" as="geometry">
            <mxPoint x="190" y="670" as="sourcePoint" />
            <mxPoint x="240" y="620" as="targetPoint" />
          </mxGeometry>
        </mxCell>
        <mxCell id="L-QoijsGHXmfGYL6V6J6-66" value="" style="endArrow=none;html=1;rounded=0;exitX=0.5;exitY=0;exitDx=0;exitDy=0;" edge="1" parent="1" source="L-QoijsGHXmfGYL6V6J6-48">
          <mxGeometry width="50" height="50" relative="1" as="geometry">
            <mxPoint x="510" y="670" as="sourcePoint" />
            <mxPoint x="560" y="620" as="targetPoint" />
          </mxGeometry>
        </mxCell>
        <mxCell id="L-QoijsGHXmfGYL6V6J6-67" value="" style="endArrow=none;html=1;rounded=0;exitX=1;exitY=0.5;exitDx=0;exitDy=0;" edge="1" parent="1" source="L-QoijsGHXmfGYL6V6J6-59">
          <mxGeometry width="50" height="50" relative="1" as="geometry">
            <mxPoint x="270" y="730" as="sourcePoint" />
            <mxPoint x="320" y="680" as="targetPoint" />
          </mxGeometry>
        </mxCell>
        <mxCell id="L-QoijsGHXmfGYL6V6J6-68" value="" style="endArrow=none;html=1;rounded=0;exitX=1;exitY=0.5;exitDx=0;exitDy=0;" edge="1" parent="1" source="L-QoijsGHXmfGYL6V6J6-48">
          <mxGeometry width="50" height="50" relative="1" as="geometry">
            <mxPoint x="550" y="730" as="sourcePoint" />
            <mxPoint x="600" y="680" as="targetPoint" />
          </mxGeometry>
        </mxCell>
        <mxCell id="L-QoijsGHXmfGYL6V6J6-69" value="" style="endArrow=none;html=1;rounded=0;exitX=1;exitY=0.5;exitDx=0;exitDy=0;" edge="1" parent="1" source="L-QoijsGHXmfGYL6V6J6-49">
          <mxGeometry width="50" height="50" relative="1" as="geometry">
            <mxPoint x="350" y="770" as="sourcePoint" />
            <mxPoint x="400" y="720" as="targetPoint" />
          </mxGeometry>
        </mxCell>
        <mxCell id="L-QoijsGHXmfGYL6V6J6-70" value="" style="endArrow=none;html=1;rounded=0;exitX=0.5;exitY=0;exitDx=0;exitDy=0;" edge="1" parent="1" source="L-QoijsGHXmfGYL6V6J6-21">
          <mxGeometry width="50" height="50" relative="1" as="geometry">
            <mxPoint x="360" y="770" as="sourcePoint" />
            <mxPoint x="400" y="720" as="targetPoint" />
          </mxGeometry>
        </mxCell>
        <mxCell id="L-QoijsGHXmfGYL6V6J6-71" value="" style="endArrow=none;html=1;rounded=0;" edge="1" parent="1">
          <mxGeometry width="50" height="50" relative="1" as="geometry">
            <mxPoint x="480" y="800" as="sourcePoint" />
            <mxPoint x="400" y="720" as="targetPoint" />
          </mxGeometry>
        </mxCell>
        <mxCell id="L-QoijsGHXmfGYL6V6J6-72" value="" style="endArrow=none;html=1;rounded=0;" edge="1" parent="1">
          <mxGeometry width="50" height="50" relative="1" as="geometry">
            <mxPoint x="400" y="720" as="sourcePoint" />
            <mxPoint x="525" y="760" as="targetPoint" />
          </mxGeometry>
        </mxCell>
        <mxCell id="L-QoijsGHXmfGYL6V6J6-76" value="&lt;span style=&quot;font-size:11.0pt;line-height:&lt;br/&gt;115%;font-family:等线;mso-bidi-font-family:&amp;quot;Times New Roman&amp;quot;;mso-bidi-theme-font:&lt;br/&gt;minor-bidi;mso-ansi-language:EN-US;mso-fareast-language:EN-US;mso-bidi-language:&lt;br/&gt;AR-SA&quot; lang=&quot;EN-US&quot;&gt;是否禁用链接&lt;/span&gt;" style="ellipse;whiteSpace=wrap;html=1;align=center;" vertex="1" parent="1">
          <mxGeometry x="640" y="1340" width="120" height="40" as="geometry" />
        </mxCell>
        <mxCell id="L-QoijsGHXmfGYL6V6J6-77" value="下载链接" style="ellipse;whiteSpace=wrap;html=1;align=center;" vertex="1" parent="1">
          <mxGeometry x="120" y="1440" width="80" height="40" as="geometry" />
        </mxCell>
        <mxCell id="L-QoijsGHXmfGYL6V6J6-78" value="文件大小" style="ellipse;whiteSpace=wrap;html=1;align=center;" vertex="1" parent="1">
          <mxGeometry x="560" y="1200" width="80" height="40" as="geometry" />
        </mxCell>
        <mxCell id="L-QoijsGHXmfGYL6V6J6-79" value="文件类型" style="ellipse;whiteSpace=wrap;html=1;align=center;" vertex="1" parent="1">
          <mxGeometry x="440" y="1200" width="80" height="40" as="geometry" />
        </mxCell>
        <mxCell id="L-QoijsGHXmfGYL6V6J6-80" value="文件名称" style="ellipse;whiteSpace=wrap;html=1;align=center;" vertex="1" parent="1">
          <mxGeometry x="320" y="1200" width="80" height="40" as="geometry" />
        </mxCell>
        <mxCell id="L-QoijsGHXmfGYL6V6J6-81" value="PYTHON链接" style="ellipse;whiteSpace=wrap;html=1;align=center;" vertex="1" parent="1">
          <mxGeometry x="50" y="1340" width="120" height="40" as="geometry" />
        </mxCell>
        <mxCell id="L-QoijsGHXmfGYL6V6J6-82" value="&lt;span style=&quot;font-size:11.0pt;line-height:&lt;br/&gt;115%;font-family:等线;mso-bidi-font-family:&amp;quot;Times New Roman&amp;quot;;mso-bidi-theme-font:&lt;br/&gt;minor-bidi;mso-ansi-language:EN-US;mso-fareast-language:EN-US;mso-bidi-language:&lt;br/&gt;AR-SA&quot; lang=&quot;EN-US&quot;&gt;文件MD5&lt;/span&gt;" style="ellipse;whiteSpace=wrap;html=1;align=center;" vertex="1" parent="1">
          <mxGeometry x="120" y="1280" width="80" height="40" as="geometry" />
        </mxCell>
        <mxCell id="L-QoijsGHXmfGYL6V6J6-83" value="模型类型" style="ellipse;whiteSpace=wrap;html=1;align=center;" vertex="1" parent="1">
          <mxGeometry x="374" y="1480" width="80" height="40" as="geometry" />
        </mxCell>
        <mxCell id="L-QoijsGHXmfGYL6V6J6-84" value="报告" style="ellipse;whiteSpace=wrap;html=1;align=center;" vertex="1" parent="1">
          <mxGeometry x="520" y="1480" width="80" height="40" as="geometry" />
        </mxCell>
        <mxCell id="L-QoijsGHXmfGYL6V6J6-85" value="用户ID" style="ellipse;whiteSpace=wrap;html=1;align=center;" vertex="1" parent="1">
          <mxGeometry x="620" y="1440" width="80" height="40" as="geometry" />
        </mxCell>
        <mxCell id="L-QoijsGHXmfGYL6V6J6-86" value="创建时间" style="ellipse;whiteSpace=wrap;html=1;align=center;" vertex="1" parent="1">
          <mxGeometry x="640" y="1280" width="80" height="40" as="geometry" />
        </mxCell>
        <mxCell id="L-QoijsGHXmfGYL6V6J6-87" value="文件" style="whiteSpace=wrap;html=1;align=center;" vertex="1" parent="1">
          <mxGeometry x="320" y="1320" width="160" height="80" as="geometry" />
        </mxCell>
        <mxCell id="L-QoijsGHXmfGYL6V6J6-90" value="" style="endArrow=none;html=1;rounded=0;entryX=0.5;entryY=1;entryDx=0;entryDy=0;" edge="1" parent="1" target="L-QoijsGHXmfGYL6V6J6-80">
          <mxGeometry width="50" height="50" relative="1" as="geometry">
            <mxPoint x="400" y="1320" as="sourcePoint" />
            <mxPoint x="450" y="1270" as="targetPoint" />
          </mxGeometry>
        </mxCell>
        <mxCell id="L-QoijsGHXmfGYL6V6J6-91" value="" style="endArrow=none;html=1;rounded=0;exitX=0.5;exitY=0;exitDx=0;exitDy=0;" edge="1" parent="1" source="L-QoijsGHXmfGYL6V6J6-87">
          <mxGeometry width="50" height="50" relative="1" as="geometry">
            <mxPoint x="430" y="1290" as="sourcePoint" />
            <mxPoint x="480" y="1240" as="targetPoint" />
          </mxGeometry>
        </mxCell>
        <mxCell id="L-QoijsGHXmfGYL6V6J6-92" value="" style="endArrow=none;html=1;rounded=0;exitX=0.5;exitY=0;exitDx=0;exitDy=0;" edge="1" parent="1" source="L-QoijsGHXmfGYL6V6J6-87">
          <mxGeometry width="50" height="50" relative="1" as="geometry">
            <mxPoint x="550" y="1290" as="sourcePoint" />
            <mxPoint x="600" y="1240" as="targetPoint" />
          </mxGeometry>
        </mxCell>
        <mxCell id="L-QoijsGHXmfGYL6V6J6-93" value="" style="endArrow=none;html=1;rounded=0;exitX=0.5;exitY=0;exitDx=0;exitDy=0;" edge="1" parent="1" source="L-QoijsGHXmfGYL6V6J6-87">
          <mxGeometry width="50" height="50" relative="1" as="geometry">
            <mxPoint x="190" y="1290" as="sourcePoint" />
            <mxPoint x="240" y="1240" as="targetPoint" />
          </mxGeometry>
        </mxCell>
        <mxCell id="L-QoijsGHXmfGYL6V6J6-94" value="" style="endArrow=none;html=1;rounded=0;" edge="1" parent="1">
          <mxGeometry width="50" height="50" relative="1" as="geometry">
            <mxPoint x="390" y="1320" as="sourcePoint" />
            <mxPoint x="640" y="1300" as="targetPoint" />
          </mxGeometry>
        </mxCell>
        <mxCell id="L-QoijsGHXmfGYL6V6J6-95" value="" style="endArrow=none;html=1;rounded=0;exitX=1;exitY=0.5;exitDx=0;exitDy=0;" edge="1" parent="1" source="L-QoijsGHXmfGYL6V6J6-87">
          <mxGeometry width="50" height="50" relative="1" as="geometry">
            <mxPoint x="590" y="1410" as="sourcePoint" />
            <mxPoint x="640" y="1360" as="targetPoint" />
          </mxGeometry>
        </mxCell>
        <mxCell id="L-QoijsGHXmfGYL6V6J6-96" value="" style="endArrow=none;html=1;rounded=0;exitX=1;exitY=0.5;exitDx=0;exitDy=0;" edge="1" parent="1" source="L-QoijsGHXmfGYL6V6J6-82">
          <mxGeometry width="50" height="50" relative="1" as="geometry">
            <mxPoint x="270" y="1410" as="sourcePoint" />
            <mxPoint x="400" y="1320" as="targetPoint" />
          </mxGeometry>
        </mxCell>
        <mxCell id="L-QoijsGHXmfGYL6V6J6-97" value="" style="endArrow=none;html=1;rounded=0;exitX=1;exitY=0.5;exitDx=0;exitDy=0;" edge="1" parent="1" source="L-QoijsGHXmfGYL6V6J6-81">
          <mxGeometry width="50" height="50" relative="1" as="geometry">
            <mxPoint x="270" y="1410" as="sourcePoint" />
            <mxPoint x="320" y="1360" as="targetPoint" />
          </mxGeometry>
        </mxCell>
        <mxCell id="L-QoijsGHXmfGYL6V6J6-98" value="" style="endArrow=none;html=1;rounded=0;exitX=0.5;exitY=0;exitDx=0;exitDy=0;" edge="1" parent="1" source="L-QoijsGHXmfGYL6V6J6-77">
          <mxGeometry width="50" height="50" relative="1" as="geometry">
            <mxPoint x="350" y="1450" as="sourcePoint" />
            <mxPoint x="400" y="1400" as="targetPoint" />
          </mxGeometry>
        </mxCell>
        <mxCell id="L-QoijsGHXmfGYL6V6J6-99" value="" style="endArrow=none;html=1;rounded=0;exitX=0.5;exitY=0;exitDx=0;exitDy=0;" edge="1" parent="1" source="L-QoijsGHXmfGYL6V6J6-53">
          <mxGeometry width="50" height="50" relative="1" as="geometry">
            <mxPoint x="350" y="1450" as="sourcePoint" />
            <mxPoint x="400" y="1400" as="targetPoint" />
          </mxGeometry>
        </mxCell>
        <mxCell id="L-QoijsGHXmfGYL6V6J6-100" value="" style="endArrow=none;html=1;rounded=0;exitX=0.5;exitY=0;exitDx=0;exitDy=0;" edge="1" parent="1" source="L-QoijsGHXmfGYL6V6J6-83">
          <mxGeometry width="50" height="50" relative="1" as="geometry">
            <mxPoint x="350" y="1450" as="sourcePoint" />
            <mxPoint x="400" y="1400" as="targetPoint" />
          </mxGeometry>
        </mxCell>
        <mxCell id="L-QoijsGHXmfGYL6V6J6-101" value="" style="endArrow=none;html=1;rounded=0;exitX=0.5;exitY=0;exitDx=0;exitDy=0;" edge="1" parent="1" source="L-QoijsGHXmfGYL6V6J6-84">
          <mxGeometry width="50" height="50" relative="1" as="geometry">
            <mxPoint x="350" y="1450" as="sourcePoint" />
            <mxPoint x="400" y="1400" as="targetPoint" />
          </mxGeometry>
        </mxCell>
        <mxCell id="L-QoijsGHXmfGYL6V6J6-102" value="" style="endArrow=none;html=1;rounded=0;exitX=0.5;exitY=0;exitDx=0;exitDy=0;" edge="1" parent="1" source="L-QoijsGHXmfGYL6V6J6-85">
          <mxGeometry width="50" height="50" relative="1" as="geometry">
            <mxPoint x="350" y="1450" as="sourcePoint" />
            <mxPoint x="400" y="1400" as="targetPoint" />
          </mxGeometry>
        </mxCell>
      </root>
    </mxGraphModel>
  </diagram>
</mxfile>
